<?xml version="1.0" encoding="utf-8"?>
<!-- Generator: Adobe Illustrator 16.0.0, SVG Export Plug-In . SVG Version: 6.00 Build 0)  -->
<!DOCTYPE svg PUBLIC "-//W3C//DTD SVG 1.1//EN" "http://www.w3.org/Graphics/SVG/1.1/DTD/svg11.dtd">
<!--suppress ALL -->
<svg version="1.1" id="mountains" xmlns="http://www.w3.org/2000/svg" xmlns:xlink="http://www.w3.org/1999/xlink" x="0px" y="0px"
	 viewBox="0 0 960 300" enable-background="new 0 0 960 300" xml:space="preserve">
<linearGradient id="mountain1_1_" gradientUnits="userSpaceOnUse" x1="479.9995" y1="26.8086" x2="479.9995" y2="300.0005">
	<stop  offset="0" style="stop-color:#E6DFCC"/>
	<stop  offset="0.0824" style="stop-color:#CAC8BE"/>
	<stop  offset="0.2175" style="stop-color:#A4A8AB"/>
	<stop  offset="0.3578" style="stop-color:#838E9C"/>
	<stop  offset="0.5022" style="stop-color:#6B798F"/>
	<stop  offset="0.6526" style="stop-color:#596A87"/>
	<stop  offset="0.8129" style="stop-color:#4E6282"/>
	<stop  offset="1" style="stop-color:#4B5F80"/>
</linearGradient>
<path id="mountain1" fill="url(#mountain1_1_)" d="M0,194.414c0,0,6.395,1.911,14.038-2.548s36.306-26.751,47.771-31.847
	s17.197-2.549,32.484-7.007c15.287-4.458,41.402-23.567,45.223-28.025s3.822-8.917,7.006-12.739s10.828-12.102,15.287-15.924
	s2.548-7.644,11.465-14.013s23.567-12.102,31.847-11.465s21.02-5.096,27.389-9.554s15.923-17.835,20.382-21.656
	s9.554-2.548,10.828,8.28s7.644-5.191,14.65-10.239s14.013,2.596,24.204,6.417s8.281,1.911,12.102,6.369s7.007-0.637,16.561,8.917
	s12.102,8.917,15.923,8.917s12.739,0,15.924,3.822s3.821,12.738,8.28,13.375s8.28,7.643,16.561,9.554s10.828-5.095,14.65-5.095
	s14.649,7.006,19.745,7.006s10.191-7.007,17.834-4.459s6.37,10.828,6.37,10.828s6.369,1.274,9.554,5.096s10.828,7.006,19.108,0
	s12.102-17.834,16.561-24.204s17.834-11.465,22.293-18.472s20.382-31.847,24.841-33.121s3.185-9.554,10.828-3.821
	s12.102,8.28,17.197,10.191s18.473,14.65,23.567,14.65s15.286-1.911,15.286-1.911s5.924-1.083,9.555,2.548
	c8.28,8.28,21.019,33.121,23.566,36.942s36.941,19.745,40.127,19.745s66.88,66.879,110.828,60.73
	c46.679-6.53,93.123,38.599,98.09,39.906c12.102,3.186,17.197-6.369,29.299-8.28s29.938,15.924,34.396,18.472
	s8.382,6.942,8.382,6.942V300H0V194.414z"/>
<linearGradient id="monutain2_1_" gradientUnits="userSpaceOnUse" x1="667.5" y1="43.4097" x2="667.5" y2="300.0005">
	<stop  offset="0" style="stop-color:#B7B6B1"/>
	<stop  offset="0.0462" style="stop-color:#ADAFAD"/>
	<stop  offset="0.2229" style="stop-color:#8C97A1"/>
	<stop  offset="0.4046" style="stop-color:#728497"/>
	<stop  offset="0.5911" style="stop-color:#607790"/>
	<stop  offset="0.7854" style="stop-color:#556F8C"/>
	<stop  offset="1" style="stop-color:#516C8B"/>
</linearGradient>
<path id="monutain2" fill="url(#monutain2_1_)" d="M431.236,254.287c4.459-6.369,106.166-67.09,122.292-128.663
	c7.007-26.751,21.656-41.401,26.115-42.675S592.728,71.831,597,63.285c5.096-10.191,8.758-11.546,8.758-11.546
	s3.186-5.095,7.644-7.643s7.006,2.547,9.554,6.369s8.279,5.732,11.465,5.732s5.733,3.186,9.555,4.459s10.828,3.185,13.376,7.643
	s4.459,14.649,16.561,12.739s17.835,1.274,22.293,3.822s8.279,8.281,13.375,12.102s3.186,11.464,8.918,10.828
	s10.191-7.006,16.561-9.554s18.472,0.637,25.478,0s21.655-0.638,26.751,3.821s6.369,7.961,16.561,8.758s19.745,9.713,28.025,14.809
	s12.739,12.102,20.383,14.013s26.113,6.714,29.299,10.363s19.109-7.179,40.128-3.357S960,158.745,960,158.745V300H375
	C375,300,426.777,260.656,431.236,254.287z"/>
<g id="mountain3">
	<linearGradient id="SVGID_1_" gradientUnits="userSpaceOnUse" x1="261.4233" y1="97.8979" x2="261.4233" y2="300.0005">
		<stop  offset="0" style="stop-color:#B7B6B1"/>
		<stop  offset="0.0462" style="stop-color:#ADAFAD"/>
		<stop  offset="0.2229" style="stop-color:#8C97A1"/>
		<stop  offset="0.4046" style="stop-color:#728497"/>
		<stop  offset="0.5911" style="stop-color:#607790"/>
		<stop  offset="0.7854" style="stop-color:#556F8C"/>
		<stop  offset="1" style="stop-color:#516C8B"/>
	</linearGradient>
	<path fill="url(#SVGID_1_)" d="M0,300v-13c0,0,73.274-45.451,86.013-55.643s42.038-22.294,63.057-28.026
		s68.153-30.573,86.625-40.127s40.764-18.472,50.318-34.395s19.745-24.841,25.478-28.025s7.007-4.458,12.739,0
		s19.745,15.287,28.025,16.561s15.923,3.822,15.923,8.28S369.083,143.165,375,150s27.573,19.574,30.758,26.58
		s2.548,23.566,8.28,31.847s11.465,23.567,15.924,26.752S476.458,300,520.407,300S0,300,0,300z"/>
</g>
</svg>
