<?xml version="1.0" standalone="no"?>
<!DOCTYPE svg PUBLIC "-//W3C//DTD SVG 20010904//EN"
 "http://www.w3.org/TR/2001/REC-SVG-20010904/DTD/svg10.dtd">
<svg version="1.0" xmlns="http://www.w3.org/2000/svg"
 width="70.000000pt" height="70.000000pt" viewBox="0 0 70.000000 70.000000"
 preserveAspectRatio="xMidYMid meet">
<metadata>
Created by potrace 1.11, written by Peter Selinger 2001-2013
</metadata>
<g transform="translate(0.000000,70.000000) scale(0.100000,-0.100000)"
fill="#000000" stroke="none">
<path d="M191 687 c-53 -27 -79 -95 -61 -158 9 -32 2 -43 -16 -28 -29 24 -39
-13 -16 -58 5 -10 7 -53 5 -95 -7 -126 28 -208 79 -189 26 9 32 52 16 106 -14
46 -10 125 8 142 13 14 13 17 -2 34 -16 18 -16 19 14 19 69 0 114 49 116 125
1 86 -72 139 -143 102z"/>
<path d="M509 685 c-48 -26 -62 -61 -56 -132 6 -60 5 -63 -13 -53 -29 16 -33
12 -25 -22 4 -18 8 -73 9 -123 3 -122 12 -160 41 -184 26 -19 60 -18 68 2 2 7
-2 40 -9 75 -15 71 -13 137 4 154 17 17 15 29 -5 44 -16 12 -13 13 23 14 80 0
131 83 106 169 -19 61 -85 87 -143 56z"/>
<path d="M85 64 c0 -37 4 -59 13 -61 7 -3 12 4 12 17 0 12 4 19 9 15 5 -3 12
-1 16 5 3 5 11 10 16 10 6 0 8 -4 5 -9 -4 -5 -3 -16 0 -24 8 -22 59 -17 58 6
-1 9 2 14 7 11 5 -3 9 -12 9 -20 0 -8 5 -14 10 -14 6 0 10 8 10 18 1 16 1 16
11 0 17 -29 26 -20 24 22 -1 22 2 40 6 40 5 0 9 -18 9 -40 0 -33 3 -40 20 -40
22 0 28 25 8 33 -10 4 -9 8 2 16 13 10 13 12 0 20 -12 8 -12 13 4 30 19 21 19
21 -7 21 -17 0 -27 -5 -27 -15 0 -8 -4 -15 -10 -15 -5 0 -9 6 -7 13 1 7 -11
13 -30 15 -26 3 -32 0 -27 -11 3 -8 1 -18 -4 -21 -5 -3 -9 2 -8 11 0 9 -4 18
-11 20 -8 3 -13 -13 -16 -49 l-3 -53 -2 53 c-1 37 -6 52 -16 52 -9 0 -13 -10
-11 -30 1 -17 0 -28 -4 -25 -3 4 -6 16 -6 28 0 17 -7 23 -30 25 l-30 3 0 -57z
m32 -1 c-3 -10 -5 -4 -5 12 0 17 2 24 5 18 2 -7 2 -21 0 -30z m140 5 c-3 -7
-5 -2 -5 12 0 14 2 19 5 13 2 -7 2 -19 0 -25z m-27 -8 c0 -5 -2 -10 -4 -10 -3
0 -8 5 -11 10 -3 6 -1 10 4 10 6 0 11 -4 11 -10z"/>
<path d="M379 118 c-1 -2 -2 -27 -3 -56 -3 -53 11 -81 21 -44 3 13 11 18 19
15 8 -3 14 0 14 6 0 6 4 11 9 11 4 0 8 -10 7 -22 0 -11 5 -23 12 -25 9 -4 12
12 12 56 0 45 -4 61 -14 61 -8 0 -12 -9 -11 -25 2 -14 0 -27 -5 -30 -4 -2 -7
3 -7 13 0 36 -4 42 -28 42 -14 0 -26 -1 -26 -2z m28 -55 c-3 -10 -5 -4 -5 12
0 17 2 24 5 18 2 -7 2 -21 0 -30z"/>
<path d="M480 111 c0 -5 5 -11 11 -13 8 -3 8 -14 0 -42 -12 -45 -8 -56 20 -56
21 0 25 10 9 26 -8 8 -8 19 0 38 16 43 13 56 -15 56 -14 0 -25 -4 -25 -9z"/>
<path d="M540 111 c0 -5 5 -11 12 -13 9 -3 9 -12 0 -38 -19 -53 -16 -59 28
-57 22 1 40 5 40 10 0 5 7 4 15 -3 25 -20 29 -4 16 55 -16 70 -37 73 -46 7 -4
-33 -11 -49 -21 -49 -8 0 -12 7 -10 16 3 9 7 31 11 49 6 29 5 32 -19 32 -14 0
-26 -4 -26 -9z"/>
</g>
</svg>
